<svg width="25" height="25" viewBox="0 0 25 25" fill="none" xmlns="http://www.w3.org/2000/svg">
<path d="M12.0344 2.14172C6.53439 2.14172 2.03439 6.63172 2.03439 12.1617C2.03439 17.1617 5.69439 21.3117 10.4744 22.0617V15.0617H7.93439V12.1617H10.4744V9.95172C10.4744 7.44172 11.9644 6.06172 14.2544 6.06172C15.3444 6.06172 16.4844 6.25172 16.4844 6.25172V8.72172H15.2244C13.9844 8.72172 13.5944 9.49172 13.5944 10.2817V12.1617H16.3744L15.9244 15.0617H13.5944V22.0617C15.9508 21.6896 18.0966 20.4872 19.6443 18.6718C21.192 16.8563 22.0397 14.5474 22.0344 12.1617C22.0344 6.63172 17.5344 2.14172 12.0344 2.14172Z" fill="black"/>
</svg>
