<svg width="25" height="25" viewBox="0 0 25 25" fill="none" xmlns="http://www.w3.org/2000/svg">
<path d="M7.83439 2.10172H16.2344C19.4344 2.10172 22.0344 4.70172 22.0344 7.90172V16.3017C22.0344 17.84 21.4233 19.3152 20.3356 20.4029C19.2479 21.4907 17.7726 22.1017 16.2344 22.1017H7.83439C4.63439 22.1017 2.03439 19.5017 2.03439 16.3017V7.90172C2.03439 6.36346 2.64546 4.88821 3.73317 3.8005C4.82089 2.71279 6.29614 2.10172 7.83439 2.10172V2.10172ZM7.63439 4.10172C6.67961 4.10172 5.76394 4.481 5.08881 5.15614C4.41368 5.83127 4.03439 6.74694 4.03439 7.70172V16.5017C4.03439 18.4917 5.64439 20.1017 7.63439 20.1017H16.4344C17.3892 20.1017 18.3048 19.7224 18.98 19.0473C19.6551 18.3722 20.0344 17.4565 20.0344 16.5017V7.70172C20.0344 5.71172 18.4244 4.10172 16.4344 4.10172H7.63439ZM17.2844 5.60172C17.6159 5.60172 17.9339 5.73342 18.1683 5.96784C18.4027 6.20226 18.5344 6.5202 18.5344 6.85172C18.5344 7.18324 18.4027 7.50118 18.1683 7.7356C17.9339 7.97002 17.6159 8.10172 17.2844 8.10172C16.9529 8.10172 16.6349 7.97002 16.4005 7.7356C16.1661 7.50118 16.0344 7.18324 16.0344 6.85172C16.0344 6.5202 16.1661 6.20226 16.4005 5.96784C16.6349 5.73342 16.9529 5.60172 17.2844 5.60172ZM12.0344 7.10172C13.3605 7.10172 14.6322 7.6285 15.5699 8.56619C16.5076 9.50387 17.0344 10.7756 17.0344 12.1017C17.0344 13.4278 16.5076 14.6996 15.5699 15.6373C14.6322 16.5749 13.3605 17.1017 12.0344 17.1017C10.7083 17.1017 9.43654 16.5749 8.49886 15.6373C7.56118 14.6996 7.03439 13.4278 7.03439 12.1017C7.03439 10.7756 7.56118 9.50387 8.49886 8.56619C9.43654 7.6285 10.7083 7.10172 12.0344 7.10172V7.10172ZM12.0344 9.10172C11.2387 9.10172 10.4757 9.41779 9.91307 9.9804C9.35046 10.543 9.03439 11.3061 9.03439 12.1017C9.03439 12.8974 9.35046 13.6604 9.91307 14.223C10.4757 14.7856 11.2387 15.1017 12.0344 15.1017C12.83 15.1017 13.5931 14.7856 14.1557 14.223C14.7183 13.6604 15.0344 12.8974 15.0344 12.1017C15.0344 11.3061 14.7183 10.543 14.1557 9.9804C13.5931 9.41779 12.83 9.10172 12.0344 9.10172Z" fill="black"/>
</svg>
