<svg width="25" height="25" viewBox="0 0 25 25" fill="none" xmlns="http://www.w3.org/2000/svg">
<path d="M22.4944 6.10172C21.7244 6.45172 20.8944 6.68172 20.0344 6.79172C20.9144 6.26172 21.5944 5.42172 21.9144 4.41172C21.0844 4.91172 20.1644 5.26172 19.1944 5.46172C18.4044 4.60172 17.2944 4.10172 16.0344 4.10172C13.6844 4.10172 11.7644 6.02172 11.7644 8.39172C11.7644 8.73172 11.8044 9.06172 11.8744 9.37172C8.3144 9.19172 5.1444 7.48172 3.0344 4.89172C2.6644 5.52172 2.4544 6.26172 2.4544 7.04172C2.4544 8.53172 3.2044 9.85172 4.3644 10.6017C3.6544 10.6017 2.9944 10.4017 2.4144 10.1017C2.4144 10.1017 2.4144 10.1017 2.4144 10.1317C2.4144 12.2117 3.8944 13.9517 5.8544 14.3417C5.4944 14.4417 5.1144 14.4917 4.7244 14.4917C4.4544 14.4917 4.1844 14.4617 3.9244 14.4117C4.4644 16.1017 6.0344 17.3617 7.9244 17.3917C6.4644 18.5517 4.6144 19.2317 2.5944 19.2317C2.2544 19.2317 1.9144 19.2117 1.5744 19.1717C3.4744 20.3917 5.7344 21.1017 8.1544 21.1017C16.0344 21.1017 20.3644 14.5617 20.3644 8.89172C20.3644 8.70172 20.3644 8.52172 20.3544 8.33172C21.1944 7.73172 21.9144 6.97172 22.4944 6.10172Z" fill="black"/>
</svg>
