<svg width="25" height="25" viewBox="0 0 25 25" fill="none" xmlns="http://www.w3.org/2000/svg">
<path d="M10.0344 15.1017L15.2244 12.1017L10.0344 9.10172V15.1017ZM21.5944 7.27172C21.7244 7.74172 21.8144 8.37172 21.8744 9.17172C21.9444 9.97172 21.9744 10.6617 21.9744 11.2617L22.0344 12.1017C22.0344 14.2917 21.8744 15.9017 21.5944 16.9317C21.3444 17.8317 20.7644 18.4117 19.8644 18.6617C19.3944 18.7917 18.5344 18.8817 17.2144 18.9417C15.9144 19.0117 14.7244 19.0417 13.6244 19.0417L12.0344 19.1017C7.84439 19.1017 5.23439 18.9417 4.20439 18.6617C3.30439 18.4117 2.72439 17.8317 2.47439 16.9317C2.34439 16.4617 2.25439 15.8317 2.19439 15.0317C2.12439 14.2317 2.09439 13.5417 2.09439 12.9417L2.03439 12.1017C2.03439 9.91172 2.19439 8.30172 2.47439 7.27172C2.72439 6.37172 3.30439 5.79172 4.20439 5.54172C4.67439 5.41172 5.53439 5.32172 6.85439 5.26172C8.15439 5.19172 9.34439 5.16172 10.4444 5.16172L12.0344 5.10172C16.2244 5.10172 18.8344 5.26172 19.8644 5.54172C20.7644 5.79172 21.3444 6.37172 21.5944 7.27172Z" fill="black"/>
</svg>
